<svg xmlns="http://www.w3.org/2000/svg" width="519.67" height="505" viewBox="0 0 519.67 505">
  <g id="openteche" transform="translate(-0.802 -0.705)">
    <path id="Path_11592" data-name="Path 11592" d="M260.637,505.7c143.5,0,259.835-113.048,259.835-252.5S404.14.7,260.637.7C117.176.7.871,113.686.8,253.08.868,122.1,107.8,15.948,239.7,15.948c131.938,0,238.9,106.222,238.9,237.254S371.636,490.457,239.7,490.457.8,384.234.8,253.2v0C.8,392.657,117.134,505.7,260.637,505.7Z" fill="#366a6c" fill-rule="evenodd"/>
    <path id="Path_11593" data-name="Path 11593" d="M422.918,130.808C379.342,72.5,308.046,38.6,232.444,47.98,118.721,62.086,38.32,168.777,52.863,286.281c13.189,106.565,99.937,185.426,200.8,188.664-113.4,6.055-214-78.323-228.419-194.839C10.185,158.424,94.818,47.769,214.279,32.952,299,22.444,378.48,62.956,422.918,130.808Z" fill="#366a6c"/>
    <path id="Path_11594" data-name="Path 11594" d="M258.76,123.677h5.711V165.6H258.76Z" fill="#366a6c"/>
    <path id="Path_11595" data-name="Path 11595" d="M261.83,126.9a16.511,16.511,0,1,0-16.492-16.511A16.5,16.5,0,0,0,261.83,126.9Zm0-4.124a12.383,12.383,0,1,0-12.369-12.383A12.376,12.376,0,0,0,261.828,122.778Z" fill="#366a6c" fill-rule="evenodd"/>
    <path id="Path_11596" data-name="Path 11596" d="M258.76,408.514h5.711V237.005H258.76Z" fill="#366a6c"/>
    <path id="Path_11597" data-name="Path 11597" d="M261.83,406.308a16.511,16.511,0,1,1-16.492,16.511A16.5,16.5,0,0,1,261.83,406.308Zm0,4.127a12.383,12.383,0,1,1-12.369,12.383A12.376,12.376,0,0,1,261.828,410.435Z" fill="#366a6c" fill-rule="evenodd"/>
    <path id="Path_11598" data-name="Path 11598" d="M401.923,199.319v6.6H301.318v-6.6Z" fill="#366a6c"/>
    <path id="Path_11599" data-name="Path 11599" d="M397.66,202.622a16.493,16.493,0,1,0,16.492-16.511A16.5,16.5,0,0,0,397.66,202.622Zm4.124,0a12.37,12.37,0,1,0,12.369-12.384A12.376,12.376,0,0,0,401.784,202.622Z" fill="#366a6c" fill-rule="evenodd"/>
    <path id="Path_11600" data-name="Path 11600" d="M121.547,199.319v6.6h100.6v-6.6Z" fill="#366a6c"/>
    <path id="Path_11601" data-name="Path 11601" d="M124.039,202.622a16.493,16.493,0,1,1-16.493-16.511A16.5,16.5,0,0,1,124.039,202.622Zm-4.122,0a12.37,12.37,0,1,1-12.369-12.384A12.376,12.376,0,0,1,119.917,202.622Z" fill="#366a6c" fill-rule="evenodd"/>
    <path id="Path_11602" data-name="Path 11602" d="M296.574,176.581c14.371,19.3,10.537,46.421-8.576,60.575s-46.245,9.991-60.616-9.315-10.536-46.421,8.576-60.576S282.2,157.274,296.574,176.581Zm-17.733,13.141a20.989,20.989,0,1,0-4.174,29.527A21.173,21.173,0,0,0,278.841,189.722Z" fill="#366a6c" fill-rule="evenodd"/>
  </g>
</svg>
